<svg xmlns="http://www.w3.org/2000/svg" width="150" height="48" viewBox="0 0 150 48" fill="none">
<path d="M75.008 47.4146H71.4124V6.6355H75.008V47.4146Z" fill="#FFFF05"/>
<path d="M10.5483 22.5178H6.95262V4.40516H0V1.03329H17.5009V4.40516H10.5483V22.5178Z" fill="white"/>
<path d="M22.6077 22.5178H18.9971V6.40441H22.175V10.3283L21.7871 9.82104C21.986 9.28393 22.2496 8.79655 22.5778 8.3589C22.916 7.91131 23.3188 7.54329 23.7863 7.25484C24.1842 6.98628 24.6218 6.7774 25.0993 6.62821C25.5867 6.46906 26.084 6.37457 26.5913 6.34473C27.0985 6.30494 27.5909 6.32484 28.0683 6.40441V9.76136C27.5909 9.62211 27.0388 9.57735 26.4122 9.62708C25.7955 9.67682 25.2385 9.85088 24.7412 10.1493C24.2439 10.4178 23.8361 10.761 23.5178 11.1787C23.2094 11.5965 22.9807 12.0739 22.8315 12.611C22.6823 13.1382 22.6077 13.7101 22.6077 14.3268V22.5178Z" fill="white"/>
<path d="M35.6392 22.9654C34.4754 22.9654 33.4907 22.7465 32.6851 22.3089C31.8794 21.8613 31.2677 21.2695 30.8499 20.5334C30.4421 19.7974 30.2382 18.9868 30.2382 18.1015C30.2382 17.3257 30.3675 16.6294 30.6261 16.0128C30.8847 15.3861 31.2826 14.849 31.8197 14.4014C32.3568 13.9439 33.0531 13.5709 33.9085 13.2824C34.555 13.0736 35.3109 12.8846 36.1763 12.7155C37.0516 12.5464 37.9965 12.3922 39.011 12.253C40.0355 12.1038 41.1048 11.9446 42.2188 11.7755L40.9357 12.5066C40.9456 11.3926 40.697 10.572 40.1897 10.0448C39.6824 9.51767 38.827 9.25409 37.6235 9.25409C36.8974 9.25409 36.1962 9.42318 35.5198 9.76136C34.8435 10.0995 34.371 10.6814 34.1024 11.507L30.8201 10.4775C31.2179 9.11484 31.9739 8.02072 33.0879 7.19516C34.2118 6.3696 35.7237 5.95682 37.6235 5.95682C39.0558 5.95682 40.314 6.19056 41.3982 6.65804C42.4923 7.12553 43.303 7.89141 43.8301 8.95569C44.1186 9.52264 44.2926 10.1045 44.3523 10.7013C44.412 11.2882 44.4418 11.9297 44.4418 12.626V22.5178H41.2938V19.0265L41.816 19.5935C41.0899 20.7572 40.2394 21.6126 39.2647 22.1597C38.2999 22.6968 37.0914 22.9654 35.6392 22.9654ZM36.3553 20.1008C37.1709 20.1008 37.8672 19.9565 38.4441 19.6681C39.021 19.3797 39.4785 19.0265 39.8167 18.6088C40.1648 18.191 40.3986 17.7982 40.5179 17.4301C40.7069 16.9726 40.8114 16.4504 40.8313 15.8636C40.8611 15.2668 40.876 14.7844 40.876 14.4163L41.9801 14.7446C40.8959 14.9137 39.9659 15.0629 39.1901 15.1922C38.4143 15.3215 37.7478 15.4458 37.1908 15.5652C36.6338 15.6746 36.1415 15.7989 35.7138 15.9382C35.296 16.0873 34.9429 16.2614 34.6545 16.4603C34.366 16.6593 34.1422 16.888 33.9831 17.1467C33.8339 17.4053 33.7593 17.7086 33.7593 18.0568C33.7593 18.4546 33.8587 18.8077 34.0577 19.1161C34.2566 19.4145 34.5451 19.6532 34.923 19.8322C35.3109 20.0113 35.7884 20.1008 36.3553 20.1008Z" fill="white"/>
<path d="M53.921 22.5178H50.3254V6.15077C50.3254 5.74297 50.3403 5.29537 50.3701 4.80799C50.4 4.31067 50.4845 3.81831 50.6238 3.33093C50.763 2.84355 51.0167 2.40093 51.3847 2.00307C51.8422 1.4958 52.3346 1.14767 52.8617 0.958688C53.3988 0.759757 53.926 0.650345 54.4432 0.630451C54.9604 0.600613 55.413 0.585693 55.8009 0.585693H57.8151V3.50997H55.9501C55.2638 3.50997 54.7516 3.68403 54.4134 4.03216C54.0852 4.37034 53.921 4.81794 53.921 5.37494V22.5178ZM57.8151 9.22425H47.7293V6.40441H57.8151V9.22425ZM63.9621 22.5178H60.3664V6.15077C60.3664 5.74297 60.3763 5.29537 60.3962 4.80799C60.4261 4.31067 60.5106 3.81831 60.6499 3.33093C60.7991 2.84355 61.0577 2.40093 61.4257 2.00307C61.8832 1.4958 62.3756 1.14767 62.9027 0.958688C63.4399 0.759757 63.967 0.650345 64.4843 0.630451C65.0015 0.600613 65.454 0.585693 65.8419 0.585693H67.8561V3.50997H65.9911C65.3048 3.50997 64.7926 3.68403 64.4544 4.03216C64.1262 4.37034 63.9621 4.81794 63.9621 5.37494V22.5178ZM67.8561 9.22425H57.7703V6.40441H67.8561V9.22425Z" fill="white"/>
<path d="M75.1815 3.95756H71.5858V0.660292H75.1815V3.95756Z" fill="white"/>
<path d="M87.2448 22.9654C85.5838 22.9654 84.1664 22.5973 82.9927 21.8613C81.819 21.1153 80.9189 20.1008 80.2922 18.8177C79.6755 17.5346 79.3622 16.0824 79.3523 14.4611C79.3622 12.81 79.6855 11.3478 80.3221 10.0747C80.9686 8.79157 81.8837 7.78698 83.0673 7.06088C84.2509 6.32484 85.6584 5.95682 87.2896 5.95682C89.1198 5.95682 90.6664 6.41933 91.9296 7.34435C93.2028 8.25944 94.0333 9.5127 94.4213 11.1041L90.8405 12.0739C90.562 11.2086 90.0995 10.5372 89.453 10.0598C88.8064 9.57238 88.0704 9.32869 87.2448 9.32869C86.3099 9.32869 85.539 9.55248 84.9323 10.0001C84.3255 10.4377 83.8779 11.0445 83.5895 11.8203C83.301 12.5961 83.1568 13.4764 83.1568 14.4611C83.1568 15.9929 83.5 17.2312 84.1863 18.1761C84.8726 19.121 85.8921 19.5935 87.2448 19.5935C88.1997 19.5935 88.9507 19.3747 89.4977 18.937C90.0547 18.4994 90.4725 17.8678 90.751 17.0422L94.4213 17.8628C93.9239 19.504 93.0536 20.7672 91.8103 21.6524C90.567 22.5277 89.0452 22.9654 87.2448 22.9654Z" fill="white"/>
<path d="M42.5347 46.89H33.1501V25.4055H41.6693C43.1215 25.4055 44.3101 25.6989 45.2352 26.2858C46.1701 26.8627 46.8614 27.6037 47.309 28.5088C47.7666 29.414 47.9953 30.3489 47.9953 31.3138C47.9953 32.4974 47.7119 33.502 47.1449 34.3275C46.5879 35.1531 45.827 35.7101 44.8622 35.9986V35.2526C46.2149 35.5609 47.2394 36.2025 47.9357 37.1772C48.6419 38.152 48.995 39.261 48.995 40.5043C48.995 41.7775 48.7513 42.8915 48.2639 43.8464C47.7765 44.8012 47.0504 45.5472 46.0856 46.0843C45.1307 46.6215 43.9471 46.89 42.5347 46.89ZM36.7906 37.3413V43.5032H42.0871C42.7137 43.5032 43.2757 43.3789 43.773 43.1302C44.2704 42.8716 44.6583 42.5135 44.9368 42.056C45.2252 41.5885 45.3695 41.0365 45.3695 40.3999C45.3695 39.823 45.2451 39.3058 44.9965 38.8482C44.7478 38.3907 44.3847 38.0277 43.9073 37.7591C43.4299 37.4806 42.858 37.3413 42.1915 37.3413H36.7906ZM36.7906 28.7625V33.9844H41.6246C42.1418 33.9844 42.6043 33.8849 43.0121 33.686C43.4199 33.4871 43.7432 33.1936 43.9819 32.8057C44.2206 32.4178 44.34 31.9404 44.34 31.3734C44.34 30.6274 44.1013 30.0058 43.6238 29.5085C43.1464 29.0111 42.48 28.7625 41.6246 28.7625H36.7906Z" fill="white"/>
<path d="M57.0773 47.3376C55.9135 47.3376 54.9288 47.1188 54.1232 46.6811C53.3175 46.2335 52.7058 45.6417 52.288 44.9057C51.8802 44.1696 51.6763 43.359 51.6763 42.4738C51.6763 41.6979 51.8056 41.0017 52.0642 40.385C52.3228 39.7584 52.7207 39.2212 53.2578 38.7736C53.7949 38.3161 54.4912 37.9431 55.3466 37.6547C55.9931 37.4458 56.7491 37.2568 57.6144 37.0877C58.4897 36.9186 59.4346 36.7644 60.4492 36.6252C61.4736 36.476 62.5429 36.3169 63.6569 36.1478L62.3738 36.8788C62.3838 35.7648 62.1351 34.9442 61.6278 34.4171C61.1205 33.8899 60.2651 33.6263 59.0616 33.6263C58.3355 33.6263 57.6343 33.7954 56.9579 34.1336C56.2816 34.4718 55.8091 35.0536 55.5405 35.8792L52.2582 34.8497C52.6561 33.4871 53.412 32.3929 54.526 31.5674C55.65 30.7418 57.1618 30.329 59.0616 30.329C60.4939 30.329 61.7522 30.5628 62.8363 31.0303C63.9304 31.4978 64.7411 32.2636 65.2682 33.3279C65.5567 33.8949 65.7308 34.4767 65.7904 35.0735C65.8501 35.6604 65.88 36.3019 65.88 36.9982V46.89H62.7319V43.3988L63.2541 43.9657C62.528 45.1295 61.6776 45.9849 60.7028 46.5319C59.738 47.069 58.5295 47.3376 57.0773 47.3376ZM57.7934 44.473C58.609 44.473 59.3053 44.3288 59.8822 44.0403C60.4591 43.7519 60.9166 43.3988 61.2548 42.981C61.603 42.5633 61.8367 42.1704 61.9561 41.8024C62.145 41.3448 62.2495 40.8226 62.2694 40.2358C62.2992 39.639 62.3141 39.1566 62.3141 38.7886L63.4182 39.1168C62.334 39.2859 61.404 39.4351 60.6282 39.5644C59.8524 39.6937 59.1859 39.818 58.6289 39.9374C58.0719 40.0468 57.5796 40.1711 57.1519 40.3104C56.7341 40.4596 56.381 40.6336 56.0926 40.8326C55.8041 41.0315 55.5803 41.2603 55.4212 41.5189C55.272 41.7775 55.1974 42.0809 55.1974 42.429C55.1974 42.8269 55.2969 43.18 55.4958 43.4883C55.6947 43.7867 55.9832 44.0254 56.3611 44.2044C56.7491 44.3835 57.2265 44.473 57.7934 44.473Z" fill="white"/>
<path d="M85.7171 47.242C84.5534 47.242 83.5687 47.0232 82.763 46.5855C81.9573 46.1379 81.3456 45.5461 80.9279 44.8101C80.5201 44.074 80.3162 43.2634 80.3162 42.3781C80.3162 41.6023 80.4455 40.906 80.7041 40.2894C80.9627 39.6627 81.3605 39.1256 81.8977 38.678C82.4348 38.2205 83.131 37.8475 83.9864 37.559C84.633 37.3502 85.3889 37.1612 86.2542 36.9921C87.1295 36.823 88.0745 36.6688 89.089 36.5296C90.1135 36.3804 91.1827 36.2212 92.2967 36.0521L91.0136 36.7832C91.0236 35.6692 90.7749 34.8486 90.2677 34.3214C89.7604 33.7943 88.905 33.5307 87.7015 33.5307C86.9754 33.5307 86.2741 33.6998 85.5978 34.038C84.9214 34.3762 84.4489 34.958 84.1804 35.7836L80.898 34.7541C81.2959 33.3914 82.0518 32.2973 83.1658 31.4718C84.2898 30.6462 85.8017 30.2334 87.7015 30.2334C89.1338 30.2334 90.392 30.4672 91.4762 30.9347C92.5703 31.4021 93.3809 32.168 93.9081 33.2323C94.1965 33.7993 94.3706 34.3811 94.4303 34.9779C94.49 35.5648 94.5198 36.2063 94.5198 36.9026V46.7944H91.3717V43.3032L91.8939 43.8701C91.1678 45.0339 90.3174 45.8893 89.3426 46.4363C88.3778 46.9734 87.1693 47.242 85.7171 47.242ZM86.4333 44.3774C87.2489 44.3774 87.9451 44.2332 88.522 43.9447C89.0989 43.6563 89.5565 43.3032 89.8947 42.8854C90.2428 42.4677 90.4765 42.0748 90.5959 41.7067C90.7849 41.2492 90.8893 40.727 90.9092 40.1402C90.939 39.5434 90.954 39.061 90.954 38.6929L92.058 39.0212C90.9739 39.1903 90.0439 39.3395 89.268 39.4688C88.4922 39.5981 87.8258 39.7224 87.2688 39.8418C86.7118 39.9512 86.2194 40.0755 85.7917 40.2148C85.374 40.364 85.0209 40.538 84.7324 40.737C84.444 40.9359 84.2202 41.1647 84.061 41.4233C83.9118 41.6819 83.8372 41.9852 83.8372 42.3334C83.8372 42.7312 83.9367 43.0843 84.1356 43.3927C84.3346 43.6911 84.623 43.9298 85.001 44.1088C85.3889 44.2879 85.8663 44.3774 86.4333 44.3774Z" fill="white"/>
<path d="M113.786 46.7944H110.146V39.0361C110.146 38.5288 110.111 37.9668 110.042 37.3502C109.972 36.7335 109.808 36.1417 109.549 35.5747C109.3 34.9978 108.923 34.5254 108.415 34.1573C107.918 33.7893 107.242 33.6053 106.386 33.6053C105.929 33.6053 105.476 33.6799 105.028 33.8291C104.581 33.9783 104.173 34.2369 103.805 34.6049C103.447 34.963 103.159 35.4603 102.94 36.0969C102.721 36.7235 102.611 37.5292 102.611 38.5139L100.478 37.6038C100.478 36.2312 100.742 34.9879 101.269 33.8739C101.806 32.7598 102.592 31.8746 103.626 31.2181C104.66 30.5517 105.934 30.2185 107.445 30.2185C108.639 30.2185 109.624 30.4174 110.4 30.8153C111.175 31.2132 111.792 31.7204 112.25 32.3371C112.707 32.9538 113.045 33.6103 113.264 34.3065C113.483 35.0028 113.622 35.6642 113.682 36.2909C113.752 36.9075 113.786 37.4098 113.786 37.7978V46.7944ZM102.611 46.7944H98.971V30.681H102.179V35.6791H102.611V46.7944Z" fill="white"/>
<path d="M125.012 47.242C123.351 47.242 121.933 46.874 120.759 46.1379C119.586 45.3919 118.686 44.3774 118.059 43.0943C117.442 41.8112 117.129 40.359 117.119 38.7377C117.129 37.0866 117.452 35.6244 118.089 34.3513C118.735 33.0682 119.65 32.0636 120.834 31.3375C122.018 30.6014 123.425 30.2334 125.056 30.2334C126.887 30.2334 128.433 30.6959 129.696 31.621C130.97 32.536 131.8 33.7893 132.188 35.3808L128.607 36.3505C128.329 35.4852 127.866 34.8138 127.22 34.3364C126.573 33.849 125.837 33.6053 125.012 33.6053C124.077 33.6053 123.306 33.8291 122.699 34.2767C122.092 34.7143 121.645 35.3211 121.356 36.0969C121.068 36.8727 120.924 37.753 120.924 38.7377C120.924 40.2695 121.267 41.5078 121.953 42.4527C122.639 43.3977 123.659 43.8701 125.012 43.8701C125.967 43.8701 126.717 43.6513 127.265 43.2136C127.822 42.776 128.239 42.1444 128.518 41.3188L132.188 42.1394C131.691 43.7806 130.82 45.0438 129.577 45.929C128.334 46.8043 126.812 47.242 125.012 47.242Z" fill="white"/>
<path d="M142.663 47.242C141.032 47.242 139.6 46.8889 138.366 46.1827C137.133 45.4765 136.168 44.4967 135.472 43.2435C134.786 41.9902 134.442 40.548 134.442 38.9167C134.442 37.1562 134.781 35.6294 135.457 34.3364C136.133 33.0334 137.073 32.0238 138.277 31.3076C139.48 30.5915 140.873 30.2334 142.454 30.2334C144.125 30.2334 145.543 30.6263 146.706 31.4121C147.88 32.1879 148.75 33.287 149.317 34.7094C149.884 36.1317 150.098 37.8077 149.959 39.7373H146.393V38.4244C146.383 36.6738 146.075 35.3957 145.468 34.59C144.861 33.7843 143.906 33.3815 142.603 33.3815C141.131 33.3815 140.037 33.839 139.321 34.7541C138.605 35.6593 138.247 36.9871 138.247 38.7377C138.247 40.3689 138.605 41.6321 139.321 42.5273C140.037 43.4225 141.082 43.8701 142.454 43.8701C143.34 43.8701 144.1 43.6762 144.737 43.2882C145.384 42.8904 145.881 42.3185 146.229 41.5725L149.78 42.6467C149.163 44.0989 148.208 45.2278 146.915 46.0335C145.632 46.8391 144.215 47.242 142.663 47.242ZM148.198 39.7373H137.113V37.0219H148.198V39.7373Z" fill="white"/>
</svg>