<svg width="92" height="92" viewBox="0 0 92 92" fill="none" xmlns="http://www.w3.org/2000/svg">
<path fill-rule="evenodd" clip-rule="evenodd" d="M45.2122 45.5138L45.7036 44.9842H47.0158V45.5968L46.4453 46.2116L45.7903 45.5058L44.9842 46.111V45.3426L45.2122 45.5138ZM44.4761 46.4926L11.6088 50.208H0V40.6307H11.6088L43.083 43.915L18.3781 25.365L9.86841 17.4687L16.3828 10.4482L24.8925 18.3445L45.2277 41.9933L41.793 11.6088V0H51.3703V11.6088L48.1935 42.0532L68.5802 18.3445L77.0898 10.4482L83.6042 17.4687L75.0946 25.365L50.2214 44.0413L80.3912 40.6308H92V50.2081H80.3912L49.0005 46.9326L73.9344 65.6546L82.4441 73.5508L75.9297 80.5713L67.42 72.675L48.3061 50.4466L51.3703 79.8111V91.4199H41.793V79.8111L45.1923 49.7397L25.4706 72.675L16.9609 80.5713L10.4465 73.5508L18.9562 65.6546L44.4761 46.4926Z" fill="#FFFF05"/>
</svg>
